<?xml version="1.0" encoding="utf-8"?>
<!-- Generator: Adobe Illustrator 19.0.0, SVG Export Plug-In . SVG Version: 6.00 Build 0)  -->
<svg version="1.1" id="Layer_1" xmlns="http://www.w3.org/2000/svg" xmlns:xlink="http://www.w3.org/1999/xlink" x="0px" y="0px"
	 viewBox="-172 295.9 250 250" style="enable-background:new -172 295.9 250 250;" xml:space="preserve">
<style type="text/css">
	.st0{fill:#E46A4E;}
</style>
<path id="XMLID_86_" class="st0" d="M-102.7,406c-8.5,0-17,0-25.6,0c-4.8,0-8-3.1-8-7.9c0-17,0-34.1,0-51.1c0-3.2,1.2-5.6,4.1-7
	c3.3-1.6,5.9-1.2,8.5,1.3c4.6,4.6,9.3,9.1,13.8,13.7c1,1,1.5,1.2,2.7,0.1c14.5-13,31.3-20.9,50.7-22.9c45.9-4.9,87.9,26.1,96.9,71.4
	c8.1,40.9-13.6,82.2-52,99c-35.5,15.5-76.6,6.4-102.3-22.5c-0.5-0.5-1-1.1-1.4-1.6c-1.7-2.1-1.6-4.1,0.3-6c4.9-5,9.8-9.9,14.7-14.8
	c2.4-2.4,4.7-2.3,6.8,0.3c10.1,12.6,23.2,20,39.2,22c25.4,3.2,50.4-10.8,61.1-34c16-34.8-4-75.2-41.5-83.1
	c-19.3-4.1-36.7,0.6-51.7,13.6c-0.9,0.7-0.9,1.2-0.1,2c4.9,4.9,9.8,9.8,14.6,14.7c2.7,2.8,3.3,5.1,1.9,8.2c-1.4,3.3-3.8,4.7-7.4,4.7
	C-85.8,405.9-94.2,406-102.7,406z"/>
</svg>
