<?xml version="1.0" encoding="utf-8"?>
<!-- Generator: Adobe Illustrator 19.0.0, SVG Export Plug-In . SVG Version: 6.00 Build 0)  -->
<svg version="1.1" id="Layer_1" xmlns="http://www.w3.org/2000/svg" xmlns:xlink="http://www.w3.org/1999/xlink" x="0px" y="0px"
	 viewBox="0 0 250 250" style="enable-background:new 0 0 250 250;" xml:space="preserve">
<style type="text/css">
	.st0{fill:#FFFFFF;stroke:#939598;stroke-width:7;stroke-linecap:round;stroke-linejoin:round;stroke-miterlimit:10;}
</style>
<g id="XMLID_83_">
	
		<ellipse id="XMLID_2_" transform="matrix(1 -3.927902e-03 3.927902e-03 1 -0.49 0.492)" class="st0" cx="125" cy="125" rx="55.1" ry="74.3"/>
	<path id="XMLID_48_" class="st0" d="M125,104.2V50.7c-25.1-0.1-46.4,22.5-53.2,53.5H125z"/>
	<path id="XMLID_13_" class="st0" d="M125,104.2V50.7c25.1-0.1,46.4,22.5,53.2,53.5H125z"/>
	<path id="XMLID_62_" class="st0" d="M127.7,125h-5.4c-3.3,0-6-2.7-6-6V89.3c0-3.3,2.7-6,6-6h5.4c3.3,0,6,2.7,6,6V119
		C133.7,122.3,131,125,127.7,125z"/>
</g>
</svg>
