<?xml version="1.0" encoding="utf-8"?>
<!-- Generator: Adobe Illustrator 19.0.0, SVG Export Plug-In . SVG Version: 6.00 Build 0)  -->
<svg version="1.1" id="Layer_1" xmlns="http://www.w3.org/2000/svg" xmlns:xlink="http://www.w3.org/1999/xlink" x="0px" y="0px"
	 viewBox="-97 145.9 400 550" style="enable-background:new -97 145.9 400 550;" xml:space="preserve">
<style type="text/css">
	.st0{fill:#FFE380;}
	.st1{fill:#95B457;}
	.st2{fill:#A5CF4C;}
	.st3{fill:#ABD8AE;}
</style>
<g id="XMLID_60_">
	<rect id="XMLID_670_" x="89" y="599.9" class="st0" width="27.9" height="96"/>
	<path id="XMLID_669_" class="st1" d="M103,625.4H-17.7c-20.4,0-33.2-22.1-23-39.8L19.7,481L80,376.5c10.2-17.7,35.7-17.7,45.9,0
		L186.3,481l60.4,104.6c10.2,17.7-2.6,39.8-23,39.8H103z"/>
	<path id="XMLID_668_" class="st2" d="M103,494.3H-17.7c-20.4,0-33.2-22.1-23-39.8L19.7,350L80,245.4c10.2-17.7,35.7-17.7,45.9,0
		L186.3,350l60.4,104.6c10.2,17.7-2.6,39.8-23,39.8H103z"/>
	<path id="XMLID_667_" class="st3" d="M103,309H32.2c-12,0-19.5-13-13.5-23.3l35.4-61.3L89.5,163c6-10.4,21-10.4,26.9,0l35.4,61.3
		l35.4,61.3c6,10.4-1.5,23.3-13.5,23.3H103z"/>
</g>
</svg>
