<?xml version="1.0" encoding="utf-8"?>
<!-- Generator: Adobe Illustrator 19.0.0, SVG Export Plug-In . SVG Version: 6.00 Build 0)  -->
<svg version="1.1" id="Layer_1" xmlns="http://www.w3.org/2000/svg" xmlns:xlink="http://www.w3.org/1999/xlink" x="0px" y="0px"
	 viewBox="-222 -229.1 650 1300" style="enable-background:new -222 -229.1 650 1300;" xml:space="preserve">
<style type="text/css">
	.st0{fill:#D2BB9C;}
	.st1{fill:#95B457;}
	.st2{fill:#A5CF4C;}
	.st3{fill:#8CCC94;}
	.st4{fill:#D9E9B5;}
	.st5{fill:#ABD8AE;}
	.st6{fill:#BFAD72;}
	.st7{fill:#BFD04B;}
	.st8{fill:#BDD753;}
	.st9{fill:#BFDB83;}
</style>
<g id="XMLID_1_">
	<rect id="XMLID_469_" x="223" y="763.9" class="st0" width="27.9" height="306"/>
	<path id="XMLID_272_" class="st1" d="M237,840.8H116.2c-20.4,0-33.2-22.1-23-39.8l60.4-104.6L214,591.9c10.2-17.7,35.7-17.7,45.9,0
		l60.4,104.6L380.7,801c10.2,17.7-2.6,39.8-23,39.8H237z"/>
	<path id="XMLID_271_" class="st2" d="M237,699.5H116.2c-20.4,0-33.2-22.1-23-39.8l60.4-104.6L214,450.6c10.2-17.7,35.7-17.7,45.9,0
		l60.4,104.6l60.4,104.6c10.2,17.7-2.6,39.8-23,39.8H237z"/>
	<path id="XMLID_270_" class="st3" d="M237,528.3h-83.8c-14.2,0-23-15.3-15.9-27.6l41.9-72.6l41.9-72.6c7.1-12.3,24.8-12.3,31.9,0
		l41.9,72.6l41.9,72.6c7.1,12.3-1.8,27.6-15.9,27.6H237z"/>
	<path id="XMLID_259_" class="st4" d="M237,396.7h-46.4c-7.8,0-12.8-8.5-8.8-15.3l23.2-40.2l23.2-40.2c3.9-6.8,13.7-6.8,17.7,0
		l23.2,40.2l23.2,40.2c3.9,6.8-1,15.3-8.8,15.3H237z"/>
	<g id="XMLID_472_">
		<rect id="XMLID_477_" x="-64.9" y="765.8" class="st0" width="27.9" height="306"/>
		<path id="XMLID_476_" class="st1" d="M-50.9,842.8h-120.7c-20.4,0-33.2-22.1-23-39.8l60.4-104.6l60.4-104.6
			c10.2-17.7,35.7-17.7,45.9,0l60.4,104.6L92.8,803c10.2,17.7-2.6,39.8-23,39.8H-50.9z"/>
		<path id="XMLID_475_" class="st2" d="M-50.9,701.4h-120.7c-20.4,0-33.2-22.1-23-39.8l60.4-104.6l60.4-104.6
			c10.2-17.7,35.7-17.7,45.9,0l60.4,104.6l60.4,104.6c10.2,17.7-2.6,39.8-23,39.8H-50.9z"/>
		<path id="XMLID_474_" class="st5" d="M-50.9,516.1h-70.8c-12,0-19.5-13-13.5-23.3l35.4-61.3l35.4-61.3c6-10.4,21-10.4,26.9,0
			l35.4,61.3l35.4,61.3c6,10.4-1.5,23.3-13.5,23.3H-50.9z"/>
	</g>
	<rect id="XMLID_212_" x="81.8" y="557.1" class="st6" width="42.4" height="513.8"/>
	<path id="XMLID_211_" class="st7" d="M103,601.5H-17.7c-20.4,0-33.2-22.1-23-39.8l60.4-104.6L80,352.5c10.2-17.7,35.7-17.7,45.9,0
		l60.4,104.6l60.4,104.6c10.2,17.7-2.6,39.8-23,39.8H103z"/>
	<path id="XMLID_210_" class="st1" d="M103,434.1H-17.7c-20.4,0-33.2-22.1-23-39.8l60.4-104.6L80,185.1c10.2-17.7,35.7-17.7,45.9,0
		l60.4,104.6l60.4,104.6c10.2,17.7-2.6,39.8-23,39.8H103z"/>
	<path id="XMLID_209_" class="st2" d="M103,303H-17.7c-20.4,0-33.2-22.1-23-39.8l60.4-104.6L80,54.1c10.2-17.7,35.7-17.7,45.9,0
		l60.4,104.6l60.4,104.6c10.2,17.7-2.6,39.8-23,39.8H103z"/>
	<path id="XMLID_208_" class="st8" d="M103,150.4H2c-17.1,0-27.8-18.5-19.2-33.3l50.5-87.5l50.5-87.5c8.5-14.8,29.9-14.8,38.4,0
		l50.5,87.5l50.5,87.5c8.5,14.8-2.1,33.3-19.2,33.3H103z"/>
	<path id="XMLID_207_" class="st9" d="M103-7.5H46.5C37-7.5,31-17.9,35.8-26.2L64-75l28.2-48.9c4.8-8.3,16.7-8.3,21.5,0L142-75
		l28.2,48.9c4.8,8.3-1.2,18.6-10.7,18.6H103z"/>
</g>
</svg>
