<?xml version="1.0" encoding="utf-8"?>
<!-- Generator: Adobe Illustrator 19.0.0, SVG Export Plug-In . SVG Version: 6.00 Build 0)  -->
<svg version="1.1" id="Layer_1" xmlns="http://www.w3.org/2000/svg" xmlns:xlink="http://www.w3.org/1999/xlink" x="0px" y="0px"
	 viewBox="-97 -4.1 400 850" style="enable-background:new -97 -4.1 400 850;" xml:space="preserve">
<style type="text/css">
	.st0{fill:#D2BB9C;}
	.st1{fill:#BFD04B;}
	.st2{fill:#95B457;}
	.st3{fill:#A5CF4C;}
	.st4{fill:#ABD8AE;}
</style>
<g>
	<rect id="XMLID_1253_" x="81.8" y="604.5" class="st0" width="42.4" height="241.4"/>
	<path id="XMLID_1246_" class="st1" d="M103,644.3H-17.7c-20.4,0-33.2-22.1-23-39.8L19.7,500L80,395.4c10.2-17.7,35.7-17.7,45.9,0
		L186.3,500l60.4,104.6c10.2,17.7-2.6,39.8-23,39.8H103z"/>
	<path id="XMLID_1245_" class="st2" d="M103,503H-17.7c-20.4,0-33.2-22.1-23-39.8l60.4-104.6L80,254c10.2-17.7,35.7-17.7,45.9,0
		l60.4,104.6l60.4,104.6c10.2,17.7-2.6,39.8-23,39.8H103z"/>
	<path id="XMLID_1244_" class="st3" d="M103,371.9H-17.7c-20.4,0-33.2-22.1-23-39.8l60.4-104.6L80,122.9c10.2-17.7,35.7-17.7,45.9,0
		l60.4,104.6l60.4,104.6c10.2,17.7-2.6,39.8-23,39.8H103z"/>
	<path id="XMLID_1243_" class="st4" d="M103,186.6H32.2c-12,0-19.5-13-13.5-23.3l35.4-61.3l35.4-61.3c6-10.4,21-10.4,26.9,0
		l35.4,61.3l35.4,61.3c6,10.4-1.5,23.3-13.5,23.3H103z"/>
</g>
</svg>
