<?xml version="1.0" encoding="utf-8"?>
<!-- Generator: Adobe Illustrator 19.0.0, SVG Export Plug-In . SVG Version: 6.00 Build 0)  -->
<svg version="1.1" id="Layer_1" xmlns="http://www.w3.org/2000/svg" xmlns:xlink="http://www.w3.org/1999/xlink" x="0px" y="0px"
	 viewBox="-222 -229.1 650 1300" style="enable-background:new -222 -229.1 650 1300;" xml:space="preserve">
<style type="text/css">
	.st0{fill:#D2BB9C;}
	.st1{fill:#95B457;}
	.st2{fill:#A5CF4C;}
	.st3{fill:#BDD753;}
	.st4{fill:#BFDB83;}
	.st5{fill:#BFD04B;}
	.st6{fill:#ABD8AE;}
	.st7{fill:#BFAD72;}
</style>
<g id="XMLID_1_">
	<g id="XMLID_1571_">
		<rect id="XMLID_1576_" x="-64.9" y="766.4" class="st0" width="27.9" height="303.6"/>
		<path id="XMLID_1575_" class="st1" d="M-50.9,843.3h-120.7c-20.4,0-33.2-22.1-23-39.8l60.4-104.6l60.4-104.6
			c10.2-17.7,35.7-17.7,45.9,0L32.5,699l60.4,104.6c10.2,17.7-2.6,39.8-23,39.8H-50.9z"/>
		<path id="XMLID_1574_" class="st2" d="M-50.9,702h-120.7c-20.4,0-33.2-22.1-23-39.8l60.4-104.6L-73.9,453
			c10.2-17.7,35.7-17.7,45.9,0l60.4,104.6l60.4,104.6c10.2,17.7-2.6,39.8-23,39.8H-50.9z"/>
		<path id="XMLID_1573_" class="st3" d="M-50.9,549.4h-101c-17.1,0-27.8-18.5-19.2-33.3l50.5-87.5l50.5-87.5
			c8.5-14.8,29.9-14.8,38.4,0l50.5,87.5l50.5,87.5c8.5,14.8-2.1,33.3-19.2,33.3H-50.9z"/>
		<path id="XMLID_1572_" class="st4" d="M-50.9,391.4h-56.5c-9.5,0-15.5-10.3-10.7-18.6l28.2-48.9l28.2-48.9
			c4.8-8.3,16.7-8.3,21.5,0l28.2,48.9l28.2,48.9c4.8,8.3-1.2,18.6-10.7,18.6H-50.9z"/>
	</g>
	<g id="XMLID_523_">
		<rect id="XMLID_924_" x="215.5" y="803.5" class="st0" width="42.4" height="266.5"/>
		<path id="XMLID_923_" class="st5" d="M236.7,843.3H116c-20.4,0-33.2-22.1-23-39.8L153.4,699l60.4-104.6
			c10.2-17.7,35.7-17.7,45.9,0L320.1,699l60.4,104.6c10.2,17.7-2.6,39.8-23,39.8H236.7z"/>
		<path id="XMLID_922_" class="st1" d="M236.7,702H116c-20.4,0-33.2-22.1-23-39.8l60.4-104.6L213.8,453c10.2-17.7,35.7-17.7,45.9,0
			l60.4,104.6l60.4,104.6c10.2,17.7-2.6,39.8-23,39.8H236.7z"/>
		<path id="XMLID_920_" class="st2" d="M236.7,570.9H116c-20.4,0-33.2-22.1-23-39.8l60.4-104.6l60.4-104.6
			c10.2-17.7,35.7-17.7,45.9,0l60.4,104.6l60.4,104.6c10.2,17.7-2.6,39.8-23,39.8H236.7z"/>
		<path id="XMLID_919_" class="st6" d="M236.7,385.6h-70.8c-12,0-19.5-13-13.5-23.3l35.4-61.3l35.4-61.3c6-10.4,21-10.4,26.9,0
			l35.4,61.3l35.4,61.3c6,10.4-1.5,23.3-13.5,23.3H236.7z"/>
	</g>
	<rect id="XMLID_1379_" x="81.8" y="557.1" class="st7" width="42.4" height="513.8"/>
	<path id="XMLID_914_" class="st5" d="M103,601.5H-17.7c-20.4,0-33.2-22.1-23-39.8l60.4-104.6L80,352.5c10.2-17.7,35.7-17.7,45.9,0
		l60.4,104.6l60.4,104.6c10.2,17.7-2.6,39.8-23,39.8H103z"/>
	<path id="XMLID_841_" class="st1" d="M103,434.1H-17.7c-20.4,0-33.2-22.1-23-39.8l60.4-104.6L80,185.1c10.2-17.7,35.7-17.7,45.9,0
		l60.4,104.6l60.4,104.6c10.2,17.7-2.6,39.8-23,39.8H103z"/>
	<path id="XMLID_840_" class="st2" d="M103,303H-17.7c-20.4,0-33.2-22.1-23-39.8l60.4-104.6L80,54.1c10.2-17.7,35.7-17.7,45.9,0
		l60.4,104.6l60.4,104.6c10.2,17.7-2.6,39.8-23,39.8H103z"/>
	<path id="XMLID_839_" class="st3" d="M103,150.4H2c-17.1,0-27.8-18.5-19.2-33.3l50.5-87.5l50.5-87.5c8.5-14.8,29.9-14.8,38.4,0
		l50.5,87.5l50.5,87.5c8.5,14.8-2.1,33.3-19.2,33.3H103z"/>
	<path id="XMLID_838_" class="st4" d="M103-7.5H46.5C37-7.5,31-17.9,35.8-26.2L64-75l28.2-48.9c4.8-8.3,16.7-8.3,21.5,0L142-75
		l28.2,48.9c4.8,8.3-1.2,18.6-10.7,18.6H103z"/>
</g>
</svg>
