<?xml version="1.0" encoding="utf-8"?>
<!-- Generator: Adobe Illustrator 19.0.0, SVG Export Plug-In . SVG Version: 6.00 Build 0)  -->
<svg version="1.1" id="Layer_1" xmlns="http://www.w3.org/2000/svg" xmlns:xlink="http://www.w3.org/1999/xlink" x="0px" y="0px"
	 viewBox="-147 -229.1 500 1300" style="enable-background:new -147 -229.1 500 1300;" xml:space="preserve">
<style type="text/css">
	.st0{fill:#FFE380;}
	.st1{fill:#BFAD72;}
	.st2{fill:#BFD04B;}
	.st3{fill:#95B457;}
	.st4{fill:#A5CF4C;}
	.st5{fill:#BDD753;}
	.st6{fill:#BFDB83;}
	.st7{fill:#ABD8AE;}
</style>
<rect id="XMLID_881_" x="225" y="967.5" class="st0" width="27.9" height="103.4"/>
<rect id="XMLID_874_" x="81.8" y="557.1" class="st1" width="42.4" height="513.8"/>
<path id="XMLID_873_" class="st2" d="M103,601.5H-17.7c-20.4,0-33.2-22.1-23-39.8l60.4-104.6L80,352.5c10.2-17.7,35.7-17.7,45.9,0
	l60.4,104.6l60.4,104.6c10.2,17.7-2.6,39.8-23,39.8H103z"/>
<path id="XMLID_872_" class="st3" d="M103,434.1H-17.7c-20.4,0-33.2-22.1-23-39.8l60.4-104.6L80,185.1c10.2-17.7,35.7-17.7,45.9,0
	l60.4,104.6l60.4,104.6c10.2,17.7-2.6,39.8-23,39.8H103z"/>
<path id="XMLID_825_" class="st4" d="M103,303H-17.7c-20.4,0-33.2-22.1-23-39.8l60.4-104.6L80,54.1c10.2-17.7,35.7-17.7,45.9,0
	l60.4,104.6l60.4,104.6c10.2,17.7-2.6,39.8-23,39.8H103z"/>
<path id="XMLID_824_" class="st5" d="M103,150.4H2c-17.1,0-27.8-18.5-19.2-33.3l50.5-87.5l50.5-87.5c8.5-14.8,29.9-14.8,38.4,0
	l50.5,87.5l50.5,87.5c8.5,14.8-2.1,33.3-19.2,33.3H103z"/>
<path id="XMLID_791_" class="st6" d="M103-7.5H46.5C37-7.5,31-17.9,35.8-26.2L64-75l28.2-48.9c4.8-8.3,16.7-8.3,21.5,0L142-75
	l28.2,48.9c4.8,8.3-1.2,18.6-10.7,18.6H103z"/>
<path id="XMLID_880_" class="st7" d="M239,985.7h-70.8c-12,0-19.5-13-13.5-23.3l35.4-61.3l35.4-61.3c6-10.4,21-10.4,26.9,0
	l35.4,61.3l35.4,61.3c6,10.4-1.5,23.3-13.5,23.3H239z"/>
<rect id="XMLID_1055_" x="-61.2" y="947.7" class="st0" width="23.2" height="123.1"/>
<path id="XMLID_1054_" class="st6" d="M-50.6,983.6H-107c-9.5,0-15.5-10.3-10.7-18.6l28.2-48.9l28.2-48.9c4.8-8.3,16.7-8.3,21.5,0
	l28.2,48.9L16.6,965c4.8,8.3-1.2,18.6-10.7,18.6H-50.6z"/>
</svg>
