<?xml version="1.0" encoding="utf-8"?>
<!-- Generator: Adobe Illustrator 19.0.0, SVG Export Plug-In . SVG Version: 6.00 Build 0)  -->
<svg version="1.1" id="Layer_1" xmlns="http://www.w3.org/2000/svg" xmlns:xlink="http://www.w3.org/1999/xlink" x="0px" y="0px"
	 viewBox="-97 -154.1 400 1150" style="enable-background:new -97 -154.1 400 1150;" xml:space="preserve">
<style type="text/css">
	.st0{fill:#BFAD72;}
	.st1{fill:#BFD04B;}
	.st2{fill:#95B457;}
	.st3{fill:#A5CF4C;}
	.st4{fill:#8CCC94;}
</style>
<g>
	<rect id="XMLID_220_" x="81.8" y="482.1" class="st0" width="42.4" height="513.8"/>
	<path id="XMLID_219_" class="st1" d="M103,521.9H-17.7c-20.4,0-33.2-22.1-23-39.8l60.4-104.6L80,272.9c10.2-17.7,35.7-17.7,45.9,0
		l60.4,104.6l60.4,104.6c10.2,17.7-2.6,39.8-23,39.8H103z"/>
	<path id="XMLID_218_" class="st2" d="M103,359.1H-17.7c-20.4,0-33.2-22.1-23-39.8l60.4-104.6L80,110.1c10.2-17.7,35.7-17.7,45.9,0
		l60.4,104.6l60.4,104.6c10.2,17.7-2.6,39.8-23,39.8H103z"/>
	<path id="XMLID_217_" class="st3" d="M103,228H-17.7c-20.4,0-33.2-22.1-23-39.8L19.7,83.6L80-20.9c10.2-17.7,35.7-17.7,45.9,0
		l60.4,104.6l60.4,104.6c10.2,17.7-2.6,39.8-23,39.8H103z"/>
	<path id="XMLID_216_" class="st4" d="M99.2,56.8H15.4c-14.2,0-23-15.3-15.9-27.6l41.9-72.6L83.3-116c7.1-12.3,24.8-12.3,31.9,0
		L157-43.4l41.9,72.6c7.1,12.3-1.8,27.6-15.9,27.6H99.2z"/>
</g>
</svg>
