<?xml version="1.0" encoding="utf-8"?>
<!-- Generator: Adobe Illustrator 19.0.0, SVG Export Plug-In . SVG Version: 6.00 Build 0)  -->
<svg version="1.1" id="Layer_1" xmlns="http://www.w3.org/2000/svg" xmlns:xlink="http://www.w3.org/1999/xlink" x="0px" y="0px"
	 viewBox="-147 -229.1 500 1300" style="enable-background:new -147 -229.1 500 1300;" xml:space="preserve">
<style type="text/css">
	.st0{fill:#FFE380;}
	.st1{fill:#8CCC94;}
	.st2{fill:#ABD8AE;}
	.st3{fill:#BFAD72;}
	.st4{fill:#BFD04B;}
	.st5{fill:#95B457;}
	.st6{fill:#A5CF4C;}
	.st7{fill:#BDD753;}
	.st8{fill:#BFDB83;}
	.st9{fill:#D9E9B5;}
</style>
<rect id="XMLID_999_" x="225" y="957.9" class="st0" width="27.9" height="112"/>
<path id="XMLID_998_" class="st1" d="M239,983.9h-83.8c-14.2,0-23-15.3-15.9-27.6l41.9-72.6l41.9-72.6c7.1-12.3,24.8-12.3,31.9,0
	l41.9,72.6l41.9,72.6c7.1,12.3-1.8,27.6-15.9,27.6H239z"/>
<g id="XMLID_987_">
	<rect id="XMLID_995_" x="-62.9" y="968.5" class="st0" width="27.9" height="103.4"/>
	<path id="XMLID_994_" class="st2" d="M-48.9,986.7h-70.8c-12,0-19.5-13-13.5-23.3l35.4-61.3l35.4-61.3c6-10.4,21-10.4,26.9,0
		L-0.1,902l35.4,61.3c6,10.4-1.5,23.3-13.5,23.3H-48.9z"/>
</g>
<rect id="XMLID_1038_" x="81.8" y="557.1" class="st3" width="42.4" height="513.8"/>
<path id="XMLID_1037_" class="st4" d="M103,601.5H-17.7c-20.4,0-33.2-22.1-23-39.8l60.4-104.6L80,352.5c10.2-17.7,35.7-17.7,45.9,0
	l60.4,104.6l60.4,104.6c10.2,17.7-2.6,39.8-23,39.8H103z"/>
<path id="XMLID_1036_" class="st5" d="M103,434.1H-17.7c-20.4,0-33.2-22.1-23-39.8l60.4-104.6L80,185.1c10.2-17.7,35.7-17.7,45.9,0
	l60.4,104.6l60.4,104.6c10.2,17.7-2.6,39.8-23,39.8H103z"/>
<path id="XMLID_878_" class="st6" d="M103,303H-17.7c-20.4,0-33.2-22.1-23-39.8l60.4-104.6L80,54.1c10.2-17.7,35.7-17.7,45.9,0
	l60.4,104.6l60.4,104.6c10.2,17.7-2.6,39.8-23,39.8H103z"/>
<path id="XMLID_877_" class="st7" d="M103,150.4H2c-17.1,0-27.8-18.5-19.2-33.3l50.5-87.5l50.5-87.5c8.5-14.8,29.9-14.8,38.4,0
	l50.5,87.5l50.5,87.5c8.5,14.8-2.1,33.3-19.2,33.3H103z"/>
<path id="XMLID_876_" class="st8" d="M103-7.5H46.5C37-7.5,31-17.9,35.8-26.2L64-75l28.2-48.9c4.8-8.3,16.7-8.3,21.5,0L142-75
	l28.2,48.9c4.8,8.3-1.2,18.6-10.7,18.6H103z"/>
<path id="XMLID_997_" class="st9" d="M239,862.6h-46.4c-7.8,0-12.8-8.5-8.8-15.3l23.2-40.2l23.2-40.2c3.9-6.8,13.7-6.8,17.7,0
	l23.2,40.2l23.2,40.2c3.9,6.8-1,15.3-8.8,15.3H239z"/>
</svg>
