<?xml version="1.0" encoding="utf-8"?>
<!-- Generator: Adobe Illustrator 19.0.0, SVG Export Plug-In . SVG Version: 6.00 Build 0)  -->
<svg version="1.1" id="Layer_1" xmlns="http://www.w3.org/2000/svg" xmlns:xlink="http://www.w3.org/1999/xlink" x="0px" y="0px"
	 viewBox="-147 220.9 300 400" style="enable-background:new -147 220.9 300 400;" xml:space="preserve">
<style type="text/css">
	.st0{fill:#FFE380;}
	.st1{fill:#BDD753;}
	.st2{fill:#BFDB83;}
</style>
<g id="XMLID_352_">
	<rect id="XMLID_468_" x="-11" y="524.9" class="st0" width="27.9" height="96"/>
	<path id="XMLID_453_" class="st1" d="M3,550.4H-98c-17.1,0-27.8-18.5-19.2-33.3l50.5-87.5l50.5-87.5c8.5-14.8,29.9-14.8,38.4,0
		l50.5,87.5l50.5,87.5c8.5,14.8-2.1,33.3-19.2,33.3H3z"/>
	<path id="XMLID_437_" class="st2" d="M3,392.5h-56.5c-9.5,0-15.5-10.3-10.7-18.6L-36,325l28.2-48.9c4.8-8.3,16.7-8.3,21.5,0L42,325
		l28.2,48.9c4.8,8.3-1.2,18.6-10.7,18.6H3z"/>
</g>
</svg>
