<?xml version="1.0" encoding="utf-8"?>
<!-- Generator: Adobe Illustrator 19.0.0, SVG Export Plug-In . SVG Version: 6.00 Build 0)  -->
<svg version="1.1" id="Layer_1" xmlns="http://www.w3.org/2000/svg" xmlns:xlink="http://www.w3.org/1999/xlink" x="0px" y="0px"
	 viewBox="-222 -229.1 650 1300" style="enable-background:new -222 -229.1 650 1300;" xml:space="preserve">
<style type="text/css">
	.st0{fill:#D2BB9C;}
	.st1{fill:#95B457;}
	.st2{fill:#A5CF4C;}
	.st3{fill:#8CCC94;}
	.st4{fill:#D9E9B5;}
	.st5{fill:#BDD753;}
	.st6{fill:#BFDB83;}
	.st7{fill:#BFAD72;}
	.st8{fill:#BFD04B;}
</style>
<rect id="XMLID_1378_" x="-58.3" y="766.4" class="st0" width="27.9" height="303.6"/>
<path id="XMLID_1289_" class="st1" d="M-44.3,843.3H-165c-20.4,0-33.2-22.1-23-39.8l60.4-104.6l60.4-104.6
	c10.2-17.7,35.7-17.7,45.9,0L39,699l60.4,104.6c10.2,17.7-2.6,39.8-23,39.8H-44.3z"/>
<path id="XMLID_1288_" class="st2" d="M-44.3,702H-165c-20.4,0-33.2-22.1-23-39.8l60.4-104.6L-67.3,453c10.2-17.7,35.7-17.7,45.9,0
	L39,557.6l60.4,104.6c10.2,17.7-2.6,39.8-23,39.8H-44.3z"/>
<path id="XMLID_1287_" class="st3" d="M-44.3,530.7h-83.8c-14.2,0-23-15.3-15.9-27.6l41.9-72.6l41.9-72.6c7.1-12.3,24.8-12.3,31.9,0
	l41.9,72.6l41.9,72.6c7.1,12.3-1.8,27.6-15.9,27.6H-44.3z"/>
<path id="XMLID_522_" class="st4" d="M-44.3,399.2h-46.4c-7.8,0-12.8-8.5-8.8-15.3l23.2-40.2l23.2-40.2c3.9-6.8,13.7-6.8,17.7,0
	l23.2,40.2l23.2,40.2c3.9,6.8-1,15.3-8.8,15.3H-44.3z"/>
<rect id="XMLID_1364_" x="230.4" y="766.4" class="st0" width="27.9" height="303.6"/>
<path id="XMLID_1361_" class="st1" d="M244.4,843.3H123.6c-20.4,0-33.2-22.1-23-39.8L161,699l60.4-104.6c10.2-17.7,35.7-17.7,45.9,0
	L327.7,699l60.4,104.6c10.2,17.7-2.6,39.8-23,39.8H244.4z"/>
<path id="XMLID_1360_" class="st2" d="M244.4,702H123.6c-20.4,0-33.2-22.1-23-39.8L161,557.6L221.4,453c10.2-17.7,35.7-17.7,45.9,0
	l60.4,104.6l60.4,104.6c10.2,17.7-2.6,39.8-23,39.8H244.4z"/>
<path id="XMLID_1359_" class="st5" d="M250.3,549.4h-101c-17.1,0-27.8-18.5-19.2-33.3l50.5-87.5l50.5-87.5
	c8.5-14.8,29.9-14.8,38.4,0l50.5,87.5l50.5,87.5c8.5,14.8-2.1,33.3-19.2,33.3H250.3z"/>
<path id="XMLID_1357_" class="st6" d="M250.3,391.4h-56.5c-9.5,0-15.5-10.3-10.7-18.6l28.2-48.9l28.2-48.9c4.8-8.3,16.7-8.3,21.5,0
	l28.2,48.9l28.2,48.9c4.8,8.3-1.2,18.6-10.7,18.6H250.3z"/>
<rect id="XMLID_836_" x="81.8" y="557.1" class="st7" width="42.4" height="513.8"/>
<path id="XMLID_835_" class="st8" d="M103,601.5H-17.7c-20.4,0-33.2-22.1-23-39.8l60.4-104.6L80,352.5c10.2-17.7,35.7-17.7,45.9,0
	l60.4,104.6l60.4,104.6c10.2,17.7-2.6,39.8-23,39.8H103z"/>
<path id="XMLID_834_" class="st1" d="M103,434.1H-17.7c-20.4,0-33.2-22.1-23-39.8l60.4-104.6L80,185.1c10.2-17.7,35.7-17.7,45.9,0
	l60.4,104.6l60.4,104.6c10.2,17.7-2.6,39.8-23,39.8H103z"/>
<path id="XMLID_833_" class="st2" d="M103,303H-17.7c-20.4,0-33.2-22.1-23-39.8l60.4-104.6L80,54.1c10.2-17.7,35.7-17.7,45.9,0
	l60.4,104.6l60.4,104.6c10.2,17.7-2.6,39.8-23,39.8H103z"/>
<path id="XMLID_832_" class="st5" d="M103,150.4H2c-17.1,0-27.8-18.5-19.2-33.3l50.5-87.5l50.5-87.5c8.5-14.8,29.9-14.8,38.4,0
	l50.5,87.5l50.5,87.5c8.5,14.8-2.1,33.3-19.2,33.3H103z"/>
<path id="XMLID_831_" class="st6" d="M103-7.5H46.5C37-7.5,31-17.9,35.8-26.2L64-75l28.2-48.9c4.8-8.3,16.7-8.3,21.5,0L142-75
	l28.2,48.9c4.8,8.3-1.2,18.6-10.7,18.6H103z"/>
<path id="XMLID_214_" class="st6" d="M109.6-9.4H53.2c-9.5,0-15.5-10.3-10.7-18.6l28.2-48.9l28.2-48.9c4.8-8.3,16.7-8.3,21.5,0
	l28.2,48.9L176.8-28c4.8,8.3-1.2,18.6-10.7,18.6H109.6z"/>
</svg>
