<?xml version="1.0" encoding="utf-8"?>
<!-- Generator: Adobe Illustrator 19.0.0, SVG Export Plug-In . SVG Version: 6.00 Build 0)  -->
<svg version="1.1" id="Layer_1" xmlns="http://www.w3.org/2000/svg" xmlns:xlink="http://www.w3.org/1999/xlink" x="0px" y="0px"
	 viewBox="-97 170.9 400 500" style="enable-background:new -97 170.9 400 500;" xml:space="preserve">
<style type="text/css">
	.st0{fill:#FFE380;}
	.st1{fill:#A5CF4C;}
	.st2{fill:#8CCC94;}
	.st3{fill:#D9E9B5;}
</style>
<g id="XMLID_352_">
	<rect id="XMLID_593_" x="89" y="574.9" class="st0" width="27.9" height="96"/>
	<path id="XMLID_592_" class="st1" d="M103,600.4H-17.7c-20.4,0-33.2-22.1-23-39.8L19.7,456L80,351.5c10.2-17.7,35.7-17.7,45.9,0
		l60.4,104.6l60.4,104.6c10.2,17.7-2.6,39.8-23,39.8H103V600.4z"/>
	<path id="XMLID_471_" class="st2" d="M103,429.2H19.2c-14.2,0-23-15.3-15.9-27.6L45.2,329l41.9-72.6c7.1-12.3,24.8-12.3,31.9,0
		l41.9,72.6l41.9,72.6c7.1,12.3-1.8,27.6-15.9,27.6H103L103,429.2z"/>
	<path id="XMLID_452_" class="st3" d="M103,297.7H56.6c-7.8,0-12.8-8.5-8.8-15.3L71,242.2L94.2,202c3.9-6.8,13.7-6.8,17.7,0
		l23.1,40.2l23.2,40.2c3.9,6.8-1,15.3-8.8,15.3H103z"/>
</g>
</svg>
