<?xml version="1.0" encoding="utf-8"?>
<!-- Generator: Adobe Illustrator 19.0.0, SVG Export Plug-In . SVG Version: 6.00 Build 0)  -->
<svg version="1.1" id="Layer_1" xmlns="http://www.w3.org/2000/svg" xmlns:xlink="http://www.w3.org/1999/xlink" x="0px" y="0px"
	 viewBox="-97 170.9 400 500" style="enable-background:new -97 170.9 400 500;" xml:space="preserve">
<style type="text/css">
	.st0{fill:#FFE380;}
	.st1{fill:#A5CF4C;}
	.st2{fill:#ABD8AE;}
</style>
<g id="XMLID_352_">
	<rect id="XMLID_566_" x="89" y="591" class="st0" width="27.9" height="79.9"/>
	<path id="XMLID_565_" class="st1" d="M103,600.5H-17.7c-20.4,0-33.2-22.1-23-39.8l60.4-104.6L80,351.6c10.2-17.7,35.7-17.7,45.9,0
		l60.4,104.6l60.4,104.6c10.2,17.7-2.6,39.8-23,39.8L103,600.5L103,600.5z"/>
	<path id="XMLID_564_" class="st2" d="M103,415.2H32.2c-12,0-19.5-13-13.5-23.3l35.4-61.3l35.4-61.4c6-10.4,21-10.4,26.9,0
		l35.4,61.3l35.4,61.3c6,10.4-1.5,23.3-13.5,23.3L103,415.2L103,415.2z"/>
</g>
</svg>
