<?xml version="1.0" encoding="utf-8"?>
<!-- Generator: Adobe Illustrator 19.0.0, SVG Export Plug-In . SVG Version: 6.00 Build 0)  -->
<svg version="1.1" id="Layer_1" xmlns="http://www.w3.org/2000/svg" xmlns:xlink="http://www.w3.org/1999/xlink" x="0px" y="0px"
	 viewBox="-97 -54.1 400 950" style="enable-background:new -97 -54.1 400 950;" xml:space="preserve">
<style type="text/css">
	.st0{fill:#D2BB9C;}
	.st1{fill:#BFD04B;}
	.st2{fill:#95B457;}
	.st3{fill:#A5CF4C;}
	.st4{fill:#BDD753;}
	.st5{fill:#BFDB83;}
</style>
<g id="XMLID_1407_">
	<rect id="XMLID_1247_" x="81.8" y="654.5" class="st0" width="42.4" height="241.4"/>
	<path id="XMLID_1252_" class="st1" d="M103,694.3H-17.7c-20.4,0-33.2-22.1-23-39.8L19.7,550L80,445.4c10.2-17.7,35.7-17.7,45.9,0
		L186.3,550l60.4,104.6c10.2,17.7-2.6,39.8-23,39.8H103z"/>
	<path id="XMLID_1251_" class="st2" d="M103,553H-17.7c-20.4,0-33.2-22.1-23-39.8l60.4-104.6L80,304c10.2-17.7,35.7-17.7,45.9,0
		l60.4,104.6l60.4,104.6c10.2,17.7-2.6,39.8-23,39.8H103z"/>
	<path id="XMLID_1250_" class="st3" d="M103,421.9H-17.7c-20.4,0-33.2-22.1-23-39.8l60.4-104.6L80,172.9c10.2-17.7,35.7-17.7,45.9,0
		l60.4,104.6l60.4,104.6c10.2,17.7-2.6,39.8-23,39.8H103z"/>
	<path id="XMLID_1249_" class="st4" d="M103,259.1H2c-17.1,0-27.8-18.5-19.2-33.3l50.5-87.5l50.5-87.5c8.5-14.8,29.9-14.8,38.4,0
		l50.5,87.5l50.5,87.5c8.5,14.8-2.1,33.3-19.2,33.3H103z"/>
	<path id="XMLID_1239_" class="st5" d="M103,101.1H46.5c-9.5,0-15.5-10.3-10.7-18.6L64,33.6l28.2-48.9c4.8-8.3,16.7-8.3,21.5,0
		L142,33.6l28.2,48.9c4.8,8.3-1.2,18.6-10.7,18.6H103z"/>
</g>
</svg>
