<?xml version="1.0" encoding="utf-8"?>
<!-- Generator: Adobe Illustrator 19.0.0, SVG Export Plug-In . SVG Version: 6.00 Build 0)  -->
<svg version="1.1" id="Layer_1" xmlns="http://www.w3.org/2000/svg" xmlns:xlink="http://www.w3.org/1999/xlink" x="0px" y="0px"
	 viewBox="-97 -229.1 400 1300" style="enable-background:new -97 -229.1 400 1300;" xml:space="preserve">
<style type="text/css">
	.st0{fill:#BFAD72;}
	.st1{fill:#BFD04B;}
	.st2{fill:#95B457;}
	.st3{fill:#A5CF4C;}
	.st4{fill:#BDD753;}
	.st5{fill:#D9E9B5;}
</style>
<g id="XMLID_1_">
	<rect id="XMLID_280_" x="81.8" y="557.1" class="st0" width="42.4" height="513.8"/>
	<path id="XMLID_251_" class="st1" d="M103,596.9H-17.7c-20.4,0-33.2-22.1-23-39.8l60.4-104.6L80,347.9c10.2-17.7,35.7-17.7,45.9,0
		l60.4,104.6l60.4,104.6c10.2,17.7-2.6,39.8-23,39.8H103z"/>
	<path id="XMLID_132_" class="st2" d="M103,434.1H-17.7c-20.4,0-33.2-22.1-23-39.8l60.4-104.6L80,185.1c10.2-17.7,35.7-17.7,45.9,0
		l60.4,104.6l60.4,104.6c10.2,17.7-2.6,39.8-23,39.8H103z"/>
	<path id="XMLID_128_" class="st3" d="M103,303H-17.7c-20.4,0-33.2-22.1-23-39.8l60.4-104.6L80,54.1c10.2-17.7,35.7-17.7,45.9,0
		l60.4,104.6l60.4,104.6c10.2,17.7-2.6,39.8-23,39.8H103z"/>
	<path id="XMLID_127_" class="st4" d="M103,150.4H2c-17.1,0-27.8-18.5-19.2-33.3l50.5-87.5l50.5-87.5c8.5-14.8,29.9-14.8,38.4,0
		l50.5,87.5l50.5,87.5c8.5,14.8-2.1,33.3-19.2,33.3H103z"/>
	<path id="XMLID_126_" class="st5" d="M103-18.5H56.6c-7.8,0-12.8-8.5-8.8-15.3L71-73.9l23.2-40.2c3.9-6.8,13.7-6.8,17.7,0L135-73.9
		l23.2,40.2c3.9,6.8-1,15.3-8.8,15.3H103z"/>
</g>
</svg>
