<?xml version="1.0" encoding="utf-8"?>
<!-- Generator: Adobe Illustrator 19.0.0, SVG Export Plug-In . SVG Version: 6.00 Build 0)  -->
<svg version="1.1" id="Layer_1" xmlns="http://www.w3.org/2000/svg" xmlns:xlink="http://www.w3.org/1999/xlink" x="0px" y="0px"
	 viewBox="-97 70.9 400 700" style="enable-background:new -97 70.9 400 700;" xml:space="preserve">
<style type="text/css">
	.st0{fill:#D2BB9C;}
	.st1{fill:#95B457;}
	.st2{fill:#A5CF4C;}
	.st3{fill:#ABD8AE;}
</style>
<g id="XMLID_1004_">
	<rect id="XMLID_1008_" x="89" y="492.4" class="st0" width="27.9" height="278.5"/>
	<path id="XMLID_1007_" class="st1" d="M103,569.3H-17.7c-20.4,0-33.2-22.1-23-39.8L19.7,425L80,320.4c10.2-17.7,35.7-17.7,45.9,0
		L186.3,425l60.4,104.6c10.2,17.7-2.6,39.8-23,39.8H103z"/>
	<path id="XMLID_1006_" class="st2" d="M103,428H-17.7c-20.4,0-33.2-22.1-23-39.8l60.4-104.6L80,179c10.2-17.7,35.7-17.7,45.9,0
		l60.4,104.6l60.4,104.6c10.2,17.7-2.6,39.8-23,39.8H103z"/>
	<path id="XMLID_1005_" class="st3" d="M103,242.6H32.2c-12,0-19.5-13-13.5-23.3L54.1,158l35.4-61.3c6-10.4,21-10.4,26.9,0
		l35.4,61.3l35.4,61.3c6,10.4-1.5,23.3-13.5,23.3H103z"/>
</g>
</svg>
