<?xml version="1.0" encoding="utf-8"?>
<!-- Generator: Adobe Illustrator 19.0.0, SVG Export Plug-In . SVG Version: 6.00 Build 0)  -->
<svg version="1.1" id="Layer_1" xmlns="http://www.w3.org/2000/svg" xmlns:xlink="http://www.w3.org/1999/xlink" x="0px" y="0px"
	 viewBox="-222 -229.1 650 1300" style="enable-background:new -222 -229.1 650 1300;" xml:space="preserve">
<style type="text/css">
	.st0{fill:#FFE380;}
	.st1{fill:#95B457;}
	.st2{fill:#A5CF4C;}
	.st3{fill:#BDD753;}
	.st4{fill:#BFDB83;}
	.st5{fill:#8CCC94;}
	.st6{fill:#D9E9B5;}
	.st7{fill:#BFAD72;}
	.st8{fill:#BFD04B;}
</style>
<g id="XMLID_1_">
	<rect id="XMLID_243_" x="223" y="956.9" class="st0" width="27.9" height="113"/>
	<path id="XMLID_242_" class="st1" d="M237,982.4H116.2c-20.4,0-33.2-22.1-23-39.8l60.4-104.6L214,733.5c10.2-17.7,35.7-17.7,45.9,0
		l60.4,104.6l60.4,104.6c10.2,17.7-2.6,39.8-23,39.8H237z"/>
	<path id="XMLID_130_" class="st2" d="M237,851.3H116.2c-20.4,0-33.2-22.1-23-39.8L153.6,707L214,602.4c10.2-17.7,35.7-17.7,45.9,0
		L320.3,707l60.4,104.6c10.2,17.7-2.6,39.8-23,39.8H237z"/>
	<path id="XMLID_122_" class="st3" d="M237,698.8H136c-17.1,0-27.8-18.5-19.2-33.3l50.5-87.5l50.5-87.5c8.5-14.8,29.9-14.8,38.4,0
		l50.5,87.5l50.5,87.5c8.5,14.8-2.1,33.3-19.2,33.3H237z"/>
	<path id="XMLID_119_" class="st4" d="M237,540.8h-56.5c-9.5,0-15.5-10.3-10.7-18.6l28.2-48.9l28.2-48.9c4.8-8.3,16.7-8.3,21.5,0
		l28.2,48.9l28.2,48.9c4.8,8.3-1.2,18.6-10.7,18.6H237z"/>
	<rect id="XMLID_342_" x="-64.9" y="958.8" class="st0" width="27.9" height="113"/>
	<path id="XMLID_341_" class="st1" d="M-50.9,984.4h-120.7c-20.4,0-33.2-22.1-23-39.8l60.4-104.6l60.4-104.6
		c10.2-17.7,35.7-17.7,45.9,0L32.4,840l60.4,104.6c10.2,17.7-2.6,39.8-23,39.8H-50.9z"/>
	<path id="XMLID_340_" class="st2" d="M-50.9,853.3h-120.7c-20.4,0-33.2-22.1-23-39.8l60.4-104.6l60.4-104.6
		c10.2-17.7,35.7-17.7,45.9,0l60.4,104.6l60.4,104.6c10.2,17.7-2.6,39.8-23,39.8H-50.9z"/>
	<path id="XMLID_339_" class="st5" d="M-50.9,682.1h-83.8c-14.2,0-23-15.3-15.9-27.6l41.9-72.6l41.9-72.6c7.1-12.3,24.8-12.3,31.9,0
		l41.9,72.6l41.9,72.6c7.1,12.3-1.8,27.6-15.9,27.6H-50.9z"/>
	<path id="XMLID_338_" class="st6" d="M-50.9,550.5h-46.4c-7.8,0-12.8-8.5-8.8-15.3L-83,495l23.2-40.2c3.9-6.8,13.7-6.8,17.7,0
		l23.2,40.2l23.2,40.2c3.9,6.8-1,15.3-8.8,15.3H-50.9z"/>
	<rect id="XMLID_240_" x="81.8" y="557.1" class="st7" width="42.4" height="513.8"/>
	<path id="XMLID_239_" class="st8" d="M103,601.5H-17.7c-20.4,0-33.2-22.1-23-39.8l60.4-104.6L80,352.5c10.2-17.7,35.7-17.7,45.9,0
		l60.4,104.6l60.4,104.6c10.2,17.7-2.6,39.8-23,39.8H103z"/>
	<path id="XMLID_238_" class="st1" d="M103,434.1H-17.7c-20.4,0-33.2-22.1-23-39.8l60.4-104.6L80,185.1c10.2-17.7,35.7-17.7,45.9,0
		l60.4,104.6l60.4,104.6c10.2,17.7-2.6,39.8-23,39.8H103z"/>
	<path id="XMLID_237_" class="st2" d="M103,303H-17.7c-20.4,0-33.2-22.1-23-39.8l60.4-104.6L80,54.1c10.2-17.7,35.7-17.7,45.9,0
		l60.4,104.6l60.4,104.6c10.2,17.7-2.6,39.8-23,39.8H103z"/>
	<path id="XMLID_236_" class="st3" d="M103,150.4H2c-17.1,0-27.8-18.5-19.2-33.3l50.5-87.5l50.5-87.5c8.5-14.8,29.9-14.8,38.4,0
		l50.5,87.5l50.5,87.5c8.5,14.8-2.1,33.3-19.2,33.3H103z"/>
	<path id="XMLID_235_" class="st4" d="M103-7.5H46.5C37-7.5,31-17.9,35.8-26.2L64-75l28.2-48.9c4.8-8.3,16.7-8.3,21.5,0L142-75
		l28.2,48.9c4.8,8.3-1.2,18.6-10.7,18.6H103z"/>
</g>
</svg>
