<?xml version="1.0" encoding="utf-8"?>
<!-- Generator: Adobe Illustrator 19.0.0, SVG Export Plug-In . SVG Version: 6.00 Build 0)  -->
<svg version="1.1" id="Layer_1" xmlns="http://www.w3.org/2000/svg" xmlns:xlink="http://www.w3.org/1999/xlink" x="0px" y="0px"
	 viewBox="-97 20.9 400 800" style="enable-background:new -97 20.9 400 800;" xml:space="preserve">
<style type="text/css">
	.st0{fill:#D2BB9C;}
	.st1{fill:#95B457;}
	.st2{fill:#A5CF4C;}
	.st3{fill:#BDD753;}
	.st4{fill:#BFDB83;}
</style>
<g>
	<rect id="XMLID_798_" x="89" y="542.4" class="st0" width="27.9" height="278.5"/>
	<path id="XMLID_796_" class="st1" d="M103,619.3H-17.7c-20.4,0-33.2-22.1-23-39.8L19.7,475L80,370.4c10.2-17.7,35.7-17.7,45.9,0
		L186.3,475l60.4,104.6c10.2,17.7-2.6,39.8-23,39.8H103z"/>
	<path id="XMLID_795_" class="st2" d="M103,478H-17.7c-20.4,0-33.2-22.1-23-39.8l60.4-104.6L80,229c10.2-17.7,35.7-17.7,45.9,0
		l60.4,104.6l60.4,104.6c10.2,17.7-2.6,39.8-23,39.8H103z"/>
	<path id="XMLID_794_" class="st3" d="M103,325.4H2c-17.1,0-27.8-18.5-19.2-33.3l50.5-87.5l50.5-87.5c8.5-14.8,29.9-14.8,38.4,0
		l50.5,87.5l50.5,87.5c8.5,14.8-2.1,33.3-19.2,33.3H103z"/>
	<path id="XMLID_793_" class="st4" d="M103,167.4H46.5c-9.5,0-15.5-10.3-10.7-18.6L64,99.9L92.3,51c4.8-8.3,16.7-8.3,21.5,0
		L142,99.9l28.2,48.9c4.8,8.3-1.2,18.6-10.7,18.6H103z"/>
</g>
</svg>
