<?xml version="1.0" encoding="utf-8"?>
<!-- Generator: Adobe Illustrator 19.0.0, SVG Export Plug-In . SVG Version: 6.00 Build 0)  -->
<svg version="1.1" id="Layer_1" xmlns="http://www.w3.org/2000/svg" xmlns:xlink="http://www.w3.org/1999/xlink" x="0px" y="0px"
	 viewBox="-97 -129.1 400 1100" style="enable-background:new -97 -129.1 400 1100;" xml:space="preserve">
<style type="text/css">
	.st0{fill:#BFAD72;}
	.st1{fill:#BFD04B;}
	.st2{fill:#95B457;}
	.st3{fill:#A5CF4C;}
	.st4{fill:#8CCC94;}
	.st5{fill:#D9E9B5;}
</style>
<g>
	<rect id="XMLID_1430_" x="81.8" y="571.9" class="st0" width="42.4" height="399"/>
	<path id="XMLID_1428_" class="st1" d="M103,628H-17.7c-20.4,0-33.2-22.1-23-39.8l60.4-104.6L80,379c10.2-17.7,35.7-17.7,45.9,0
		l60.4,104.6l60.4,104.6c10.2,17.7-2.6,39.8-23,39.8H103z"/>
	<path id="XMLID_1427_" class="st2" d="M103,496.9H-17.7c-20.4,0-33.2-22.1-23-39.8l60.4-104.6L80,247.9c10.2-17.7,35.7-17.7,45.9,0
		l60.4,104.6l60.4,104.6c10.2,17.7-2.6,39.8-23,39.8H103z"/>
	<path id="XMLID_1426_" class="st3" d="M103,334.1H-17.7c-20.4,0-33.2-22.1-23-39.8l60.4-104.6L80,85.1c10.2-17.7,35.7-17.7,45.9,0
		l60.4,104.6l60.4,104.6c10.2,17.7-2.6,39.8-23,39.8H103z"/>
	<path id="XMLID_1451_" class="st4" d="M103,147.2H19.2c-14.2,0-23-15.3-15.9-27.6L45.2,47l41.9-72.6c7.1-12.3,24.8-12.3,31.9,0
		L160.8,47l41.9,72.6c7.1,12.3-1.8,27.6-15.9,27.6H103z"/>
	<path id="XMLID_1450_" class="st5" d="M103,15.6H56.6c-7.8,0-12.8-8.5-8.8-15.3L71-39.9L94.2-80c3.9-6.8,13.7-6.8,17.7,0L135-39.9
		l23.2,40.2c3.9,6.8-1,15.3-8.8,15.3H103z"/>
</g>
</svg>
