<?xml version="1.0" encoding="utf-8"?>
<!-- Generator: Adobe Illustrator 19.0.0, SVG Export Plug-In . SVG Version: 6.00 Build 0)  -->
<svg version="1.1" id="Layer_1" xmlns="http://www.w3.org/2000/svg" xmlns:xlink="http://www.w3.org/1999/xlink" x="0px" y="0px"
	 viewBox="-97 45.9 400 750" style="enable-background:new -97 45.9 400 750;" xml:space="preserve">
<style type="text/css">
	.st0{fill:#D2BB9C;}
	.st1{fill:#95B457;}
	.st2{fill:#A5CF4C;}
	.st3{fill:#8CCC94;}
	.st4{fill:#D9E9B5;}
</style>
<g>
	<rect id="XMLID_1078_" x="89" y="517.4" class="st0" width="27.9" height="278.5"/>
	<path id="XMLID_760_" class="st1" d="M103,594.3H-17.7c-20.4,0-33.2-22.1-23-39.8L19.7,450L80,345.4c10.2-17.7,35.7-17.7,45.9,0
		L186.3,450l60.4,104.6c10.2,17.7-2.6,39.8-23,39.8H103z"/>
	<path id="XMLID_758_" class="st2" d="M103,453H-17.7c-20.4,0-33.2-22.1-23-39.8l60.4-104.6L80,204c10.2-17.7,35.7-17.7,45.9,0
		l60.4,104.6l60.4,104.6c10.2,17.7-2.6,39.8-23,39.8H103z"/>
	<path id="XMLID_757_" class="st3" d="M103,281.7H19.2c-14.2,0-23-15.3-15.9-27.6l41.9-72.6L87.1,109c7.1-12.3,24.8-12.3,31.9,0
		l41.9,72.6l41.9,72.6c7.1,12.3-1.8,27.6-15.9,27.6H103z"/>
	<path id="XMLID_672_" class="st4" d="M103,150.2H56.6c-7.8,0-12.8-8.5-8.8-15.3L71,94.7l23.2-40.2c3.9-6.8,13.7-6.8,17.7,0
		L135,94.7l23.2,40.2c3.9,6.8-1,15.3-8.8,15.3H103z"/>
</g>
</svg>
