<?xml version="1.0" encoding="utf-8"?>
<!-- Generator: Adobe Illustrator 19.0.0, SVG Export Plug-In . SVG Version: 6.00 Build 0)  -->
<svg version="1.1" id="Layer_1" xmlns="http://www.w3.org/2000/svg" xmlns:xlink="http://www.w3.org/1999/xlink" x="0px" y="0px"
	 viewBox="-97 145.9 400 550" style="enable-background:new -97 145.9 400 550;" xml:space="preserve">
<style type="text/css">
	.st0{fill:#FFE380;}
	.st1{fill:#A5CF4C;}
	.st2{fill:#BDD753;}
	.st3{fill:#BFDB83;}
</style>
<g id="XMLID_72_">
	<rect id="XMLID_473_" x="89" y="599.9" class="st0" width="27.9" height="96"/>
	<path id="XMLID_435_" class="st1" d="M103,625.4H-17.7c-20.4,0-33.2-22.1-23-39.8L19.7,481L80,376.5c10.2-17.7,35.7-17.7,45.9,0
		L186.3,481l60.4,104.6c10.2,17.7-2.6,39.8-23,39.8H103z"/>
	<path id="XMLID_728_" class="st2" d="M103,472.9H2c-17.1,0-27.8-18.5-19.2-33.3l50.5-87.5l50.5-87.5c8.5-14.8,29.9-14.8,38.4,0
		l50.5,87.5l50.5,87.5c8.5,14.8-2.1,33.3-19.2,33.3H103z"/>
	<path id="XMLID_755_" class="st3" d="M103,314.9H46.5c-9.5,0-15.5-10.3-10.7-18.6L64,247.4l28.2-48.9c4.8-8.3,16.7-8.3,21.5,0
		l28.2,48.9l28.2,48.9c4.8,8.3-1.2,18.6-10.7,18.6H103z"/>
</g>
</svg>
