<?xml version="1.0" encoding="utf-8"?>
<!-- Generator: Adobe Illustrator 19.0.0, SVG Export Plug-In . SVG Version: 6.00 Build 0)  -->
<svg version="1.1" id="Layer_1" xmlns="http://www.w3.org/2000/svg" xmlns:xlink="http://www.w3.org/1999/xlink" x="0px" y="0px"
	 viewBox="-97 -129.1 400 1100" style="enable-background:new -97 -129.1 400 1100;" xml:space="preserve">
<style type="text/css">
	.st0{fill:#BFAD72;}
	.st1{fill:#BFD04B;}
	.st2{fill:#95B457;}
	.st3{fill:#A5CF4C;}
	.st4{fill:#BDD753;}
	.st5{fill:#BFDB83;}
</style>
<g id="XMLID_55_">
	<rect id="XMLID_1436_" x="81.8" y="571.9" class="st0" width="42.4" height="399"/>
	<path id="XMLID_1434_" class="st1" d="M103,628H-17.7c-20.4,0-33.2-22.1-23-39.8l60.4-104.6L80,379c10.2-17.7,35.7-17.7,45.9,0
		l60.4,104.6l60.4,104.6c10.2,17.7-2.6,39.8-23,39.8H103z"/>
	<path id="XMLID_1433_" class="st2" d="M103,496.9H-17.7c-20.4,0-33.2-22.1-23-39.8l60.4-104.6L80,247.9c10.2-17.7,35.7-17.7,45.9,0
		l60.4,104.6l60.4,104.6c10.2,17.7-2.6,39.8-23,39.8H103z"/>
	<path id="XMLID_1432_" class="st3" d="M103,334.1H-17.7c-20.4,0-33.2-22.1-23-39.8l60.4-104.6L80,85.1c10.2-17.7,35.7-17.7,45.9,0
		l60.4,104.6l60.4,104.6c10.2,17.7-2.6,39.8-23,39.8H103z"/>
	<path id="XMLID_1478_" class="st4" d="M103,181.5H2c-17.1,0-27.8-18.5-19.2-33.3l50.5-87.5l50.5-87.5c8.5-14.8,29.9-14.8,38.4,0
		l50.5,87.5l50.5,87.5c8.5,14.8-2.1,33.3-19.2,33.3H103z"/>
	<path id="XMLID_1477_" class="st5" d="M103,23.5H46.5C37,23.5,31,13.2,35.8,4.9L64-44l28.2-48.9c4.8-8.3,16.7-8.3,21.5,0L142-44
		l28.2,48.9c4.8,8.3-1.2,18.6-10.7,18.6H103z"/>
</g>
</svg>
