<?xml version="1.0" encoding="utf-8"?>
<!-- Generator: Adobe Illustrator 19.0.0, SVG Export Plug-In . SVG Version: 6.00 Build 0)  -->
<svg version="1.1" id="Layer_1" xmlns="http://www.w3.org/2000/svg" xmlns:xlink="http://www.w3.org/1999/xlink" x="0px" y="0px"
	 viewBox="-172 245.9 250 350" style="enable-background:new -172 245.9 250 350;" xml:space="preserve">
<style type="text/css">
	.st0{fill:#FFE380;}
	.st1{fill:#8CCC94;}
	.st2{fill:#D9E9B5;}
</style>
<g id="XMLID_274_">
	<rect id="XMLID_487_" x="-61" y="499.9" class="st0" width="27.9" height="96"/>
	<path id="XMLID_486_" class="st1" d="M-47,525.9h-83.8c-14.2,0-23-15.3-15.9-27.6l41.9-72.6l41.9-72.6c7.1-12.3,24.8-12.3,31.9,0
		l41.9,72.6l41.9,72.6c7.1,12.3-1.8,27.6-15.9,27.6H-47z"/>
	<path id="XMLID_470_" class="st2" d="M-47,404.6h-46.4c-7.8,0-12.8-8.5-8.8-15.3l23.2-40.2l23.2-40.2c3.9-6.8,13.7-6.8,17.7,0
		l23.1,40.2l23.2,40.2c3.9,6.8-1,15.3-8.8,15.3H-47z"/>
</g>
</svg>
