<?xml version="1.0" encoding="utf-8"?>
<!-- Generator: Adobe Illustrator 19.0.0, SVG Export Plug-In . SVG Version: 6.00 Build 0)  -->
<svg version="1.1" id="Layer_1" xmlns="http://www.w3.org/2000/svg" xmlns:xlink="http://www.w3.org/1999/xlink" x="0px" y="0px"
	 viewBox="-197 -229.1 600 1300" style="enable-background:new -197 -229.1 600 1300;" xml:space="preserve">
<style type="text/css">
	.st0{fill:#FFE380;}
	.st1{fill:#BDD753;}
	.st2{fill:#BFDB83;}
	.st3{fill:#8CCC94;}
	.st4{fill:#D9E9B5;}
	.st5{fill:#BFAD72;}
	.st6{fill:#BFD04B;}
	.st7{fill:#95B457;}
	.st8{fill:#A5CF4C;}
</style>
<g id="XMLID_46_">
	<rect id="XMLID_45_" x="225" y="957.9" class="st0" width="27.9" height="112"/>
	<path id="XMLID_44_" class="st1" d="M239,989.7H138c-17.1,0-27.8-18.5-19.2-33.3l50.5-87.5l50.5-87.5c8.5-14.8,29.9-14.8,38.4,0
		l50.5,87.5l50.5,87.5c8.5,14.8-2.1,33.3-19.2,33.3H239z"/>
	<path id="XMLID_43_" class="st2" d="M239,831.7h-56.5c-9.5,0-15.5-10.3-10.7-18.6l28.2-48.9l28.2-48.9c4.8-8.3,16.7-8.3,21.5,0
		l28.2,48.9l28.2,48.9c4.8,8.3-1.2,18.6-10.7,18.6H239z"/>
	<rect id="XMLID_42_" x="-62.9" y="952.4" class="st0" width="27.9" height="116.3"/>
	<path id="XMLID_41_" class="st3" d="M-48.9,981h-83.8c-14.2,0-23-15.3-15.9-27.6l41.9-72.6l41.9-72.6c7.1-12.3,24.8-12.3,31.9,0
		l41.9,72.6l41.9,72.6C57.9,965.6,49,981,34.8,981H-48.9z"/>
	<path id="XMLID_1_" class="st4" d="M-48.9,859.7h-46.4c-7.8,0-12.8-8.5-8.8-15.3l23.2-40.2l23.2-40.2c3.9-6.8,13.7-6.8,17.7,0
		l23.2,40.2l23.2,40.2c3.9,6.8-1,15.3-8.8,15.3H-48.9z"/>
	<rect id="XMLID_1147_" x="81.8" y="557.1" class="st5" width="42.4" height="513.8"/>
	<path id="XMLID_996_" class="st6" d="M103,601.5H-17.7c-20.4,0-33.2-22.1-23-39.8l60.4-104.6L80,352.5c10.2-17.7,35.7-17.7,45.9,0
		l60.4,104.6l60.4,104.6c10.2,17.7-2.6,39.8-23,39.8H103z"/>
	<path id="XMLID_991_" class="st7" d="M103,434.1H-17.7c-20.4,0-33.2-22.1-23-39.8l60.4-104.6L80,185.1c10.2-17.7,35.7-17.7,45.9,0
		l60.4,104.6l60.4,104.6c10.2,17.7-2.6,39.8-23,39.8H103z"/>
	<path id="XMLID_986_" class="st8" d="M103,303H-17.7c-20.4,0-33.2-22.1-23-39.8l60.4-104.6L80,54.1c10.2-17.7,35.7-17.7,45.9,0
		l60.4,104.6l60.4,104.6c10.2,17.7-2.6,39.8-23,39.8H103z"/>
	<path id="XMLID_985_" class="st1" d="M103,150.4H2c-17.1,0-27.8-18.5-19.2-33.3l50.5-87.5l50.5-87.5c8.5-14.8,29.9-14.8,38.4,0
		l50.5,87.5l50.5,87.5c8.5,14.8-2.1,33.3-19.2,33.3H103z"/>
	<path id="XMLID_984_" class="st2" d="M103-7.5H46.5C37-7.5,31-17.9,35.8-26.2L64-75l28.2-48.9c4.8-8.3,16.7-8.3,21.5,0L142-75
		l28.2,48.9c4.8,8.3-1.2,18.6-10.7,18.6H103z"/>
</g>
</svg>
