<?xml version="1.0" encoding="utf-8"?>
<!-- Generator: Adobe Illustrator 19.0.0, SVG Export Plug-In . SVG Version: 6.00 Build 0)  -->
<svg version="1.1" id="Layer_1" xmlns="http://www.w3.org/2000/svg" xmlns:xlink="http://www.w3.org/1999/xlink" x="0px" y="0px"
	 viewBox="-97 95.9 400 650" style="enable-background:new -97 95.9 400 650;" xml:space="preserve">
<style type="text/css">
	.st0{fill:#FFE380;}
	.st1{fill:#95B457;}
	.st2{fill:#A5CF4C;}
	.st3{fill:#8CCC94;}
	.st4{fill:#D9E9B5;}
</style>
<g id="XMLID_27_">
	<rect id="XMLID_933_" x="89" y="649.9" class="st0" width="27.9" height="96"/>
	<path id="XMLID_932_" class="st1" d="M103,675.4H-17.7c-20.4,0-33.2-22.1-23-39.8L19.7,531L80,426.5c10.2-17.7,35.7-17.7,45.9,0
		L186.3,531l60.4,104.6c10.2,17.7-2.6,39.8-23,39.8H103z"/>
	<path id="XMLID_931_" class="st2" d="M103,544.3H-17.7c-20.4,0-33.2-22.1-23-39.8L19.7,400L80,295.4c10.2-17.7,35.7-17.7,45.9,0
		L186.3,400l60.4,104.6c10.2,17.7-2.6,39.8-23,39.8H103z"/>
	<path id="XMLID_930_" class="st3" d="M103,373.1H19.2c-14.2,0-23-15.3-15.9-27.6l41.9-72.6l41.9-72.6c7.1-12.3,24.8-12.3,31.9,0
		l41.9,72.6l41.9,72.6c7.1,12.3-1.8,27.6-15.9,27.6H103z"/>
	<path id="XMLID_929_" class="st4" d="M103,241.5H56.6c-7.8,0-12.8-8.5-8.8-15.3L71,186.1l23.2-40.2c3.9-6.8,13.7-6.8,17.7,0
		l23.2,40.2l23.2,40.2c3.9,6.8-1,15.3-8.8,15.3H103z"/>
</g>
</svg>
